<svg version="1.1" id="Layer_1" xmlns="http://www.w3.org/2000/svg" x="0" y="0" width="88" height="72" viewBox="0 0 88 72" xml:space="preserve">
  <path fill="#2BA5DC" d="M86.8,69.9H0V3.2h17.9v2.9h-15V67h81V6.2H68.3V3.3h18.5V69.9z"/>
  <path fill="#7FEC60" stroke="#000000" stroke-width=".2" d="M28.3,9.9c-0.8,0-1.4-0.6-1.4-1.4V1.4c0-0.8,0.6-1.4,1.4-1.4h30.1	c0.8,0,1.4,0.6,1.4,1.4v7.1c0,0.8-0.6,1.4-1.4,1.4h-9.5c-0.4,0-0.7,0.3-0.7,0.7v37.7c0,0.8-0.6,1.4-1.4,1.4h-7	c-0.8,0-1.4-0.6-1.4-1.4V10.7c0-0.4-0.3-0.7-0.7-0.7L28.3,9.9L28.3,9.9z"/>
</svg>